<svg width="41" height="43" viewBox="0 0 41 43" fill="none" xmlns="http://www.w3.org/2000/svg">
<g filter="url(#filter0_d_22_52)">
<path d="M32.1875 9.01562H8.8125C7.05209 9.01562 5.625 10.2468 5.625 11.7656V33.7656C5.625 35.2844 7.05209 36.5156 8.8125 36.5156H32.1875C33.9479 36.5156 35.375 35.2844 35.375 33.7656V11.7656C35.375 10.2468 33.9479 9.01562 32.1875 9.01562Z" fill="#A7ECB2" shape-rendering="crispEdges"/>
<path d="M32.1875 9.01562H8.8125C7.05209 9.01562 5.625 10.2468 5.625 11.7656V33.7656C5.625 35.2844 7.05209 36.5156 8.8125 36.5156H32.1875C33.9479 36.5156 35.375 35.2844 35.375 33.7656V11.7656C35.375 10.2468 33.9479 9.01562 32.1875 9.01562Z" stroke="black" stroke-opacity="0.8" stroke-width="3" stroke-linejoin="round" shape-rendering="crispEdges"/>
</g>
<g filter="url(#filter1_d_22_52)">
<path d="M26.875 14.516V7.18262C26.875 4.14505 24.0208 1.68262 20.5 1.68262C16.9792 1.68262 14.125 4.14505 14.125 7.18262V14.516" stroke="black" stroke-opacity="0.8" stroke-width="3" stroke-linecap="round" stroke-linejoin="round" shape-rendering="crispEdges"/>
</g>
<defs>
<filter id="filter0_d_22_52" x="0.125" y="7.51562" width="40.75" height="38.5" filterUnits="userSpaceOnUse" color-interpolation-filters="sRGB">
<feFlood flood-opacity="0" result="BackgroundImageFix"/>
<feColorMatrix in="SourceAlpha" type="matrix" values="0 0 0 0 0 0 0 0 0 0 0 0 0 0 0 0 0 0 127 0" result="hardAlpha"/>
<feOffset dy="4"/>
<feGaussianBlur stdDeviation="2"/>
<feComposite in2="hardAlpha" operator="out"/>
<feColorMatrix type="matrix" values="0 0 0 0 0 0 0 0 0 0 0 0 0 0 0 0 0 0 0.25 0"/>
<feBlend mode="normal" in2="BackgroundImageFix" result="effect1_dropShadow_22_52"/>
<feBlend mode="normal" in="SourceGraphic" in2="effect1_dropShadow_22_52" result="shape"/>
</filter>
<filter id="filter1_d_22_52" x="8.625" y="0.182617" width="23.75" height="23.833" filterUnits="userSpaceOnUse" color-interpolation-filters="sRGB">
<feFlood flood-opacity="0" result="BackgroundImageFix"/>
<feColorMatrix in="SourceAlpha" type="matrix" values="0 0 0 0 0 0 0 0 0 0 0 0 0 0 0 0 0 0 127 0" result="hardAlpha"/>
<feOffset dy="4"/>
<feGaussianBlur stdDeviation="2"/>
<feComposite in2="hardAlpha" operator="out"/>
<feColorMatrix type="matrix" values="0 0 0 0 0 0 0 0 0 0 0 0 0 0 0 0 0 0 0.25 0"/>
<feBlend mode="normal" in2="BackgroundImageFix" result="effect1_dropShadow_22_52"/>
<feBlend mode="normal" in="SourceGraphic" in2="effect1_dropShadow_22_52" result="shape"/>
</filter>
</defs>
</svg>
